PathFileType	4	(X/Y/Z)	Kaydara																																																																																																																									
DataRate	CameraRate	NumFrames	NumMarkers	Units	OrigDataRate	OrigDataStartFrame	OrigNumFrames																																																																																																																					
30	30	7	41	mm	30	96	152																																																																																																																					
Frame#	Time	EMLA_LFHD			EMLA_RFHD			EMLA_LBHD			EMLA_RBHD			EMLA_LFTShould			EMLA_RFTShould			EMLA_LRRShould			EMLA_RRRShould			EMLA_T10			EMLA_STRN			EMLA_TRUN			EMLA_LSHO			EMLA_LUPA			EMLA_LELB			EMLA_LFRM			EMLA_LWRA			EMLA_LWRB			EMLA_LFIN			EMLA_RSHO			EMLA_RUPA			EMLA_RELB			EMLA_RFRM			EMLA_RWRA			EMLA_RWRB			EMLA_RFIN			EMLA_LFWT			EMLA_RFWT			EMLA_LBWT			EMLA_RBWT			EMLA_LTHI			EMLA_LKNE			EMLA_LSHN			EMLA_LANK			EMLA_LHEE			EMLA_LTOE			EMLA_RTHI			EMLA_RKNE			EMLA_RSHN			EMLA_RANK			EMLA_RHEE			EMLA_RTOE		
		X1	Y1	Z1	X2	Y2	Z2	X3	Y3	Z3	X4	Y4	Z4	X5	Y5	Z5	X6	Y6	Z6	X7	Y7	Z7	X8	Y8	Z8	X9	Y9	Z9	X10	Y10	Z10	X11	Y11	Z11	X12	Y12	Z12	X13	Y13	Z13	X14	Y14	Z14	X15	Y15	Z15	X16	Y16	Z16	X17	Y17	Z17	X18	Y18	Z18	X19	Y19	Z19	X20	Y20	Z20	X21	Y21	Z21	X22	Y22	Z22	X23	Y23	Z23	X24	Y24	Z24	X25	Y25	Z25	X26	Y26	Z26	X27	Y27	Z27	X28	Y28	Z28	X29	Y29	Z29	X30	Y30	Z30	X31	Y31	Z31	X32	Y32	Z32	X33	Y33	Z33	X34	Y34	Z34	X35	Y35	Z35	X36	Y36	Z36	X37	Y37	Z37	X38	Y38	Z38	X39	Y39	Z39	X40	Y40	Z40	X41	Y41	Z41
																																																																																																																												
96	3.177	212.10024	1569.93912	-630.1886	43.14466	1563.51822	-606.83823	205.82315	1536.72699	-777.21512	12.83101	1532.17606	-753.36182	206.42408	1314.15176	-668.06984	57.47296	1307.23465	-649.92401	176.26381	1392.53616	-800.89256	21.02299	1384.3045	-782.69005	101.17785	1229.76273	-874.79774	133.99406	1239.49776	-633.33778	127.31642	1134.67346	-633.10673	319.33195	1348.23715	-737.2345	376.21586	1197.55569	-835.10078	406.46709	1079.50256	-898.58643	432.52205	968.74664	-962.79427	421.06613	782.08618	-962.50038	450.03292	822.1833	-1033.98514	474.94221	763.15544	-1008.87321	-70.52376	1357.17789	-692.41486	-136.41023	1171.61873	-662.62772	-169.22979	1031.55052	-647.65686	-154.22011	933.8942	-599.27216	-46.14343	871.99081	-439.89822	-92.3243	806.92558	-477.56817	-96.55638	817.53685	-412.52586	199.84518	924.35684	-698.04436	-30.15481	909.70055	-747.03125	220.76761	940.63789	-899.22157	44.06542	953.1424	-919.85947	252.74538	652.69547	-757.33879	245.8387	501.1515	-604.49352	205.83733	328.52814	-540.55138	193.80989	140.52752	-566.78635	121.95181	59.60604	-608.54702	157.65936	67.2884	-413.03364	25.55324	703.22769	-991.53046	-26.94092	491.39511	-1008.55499	37.4914	295.0572	-1116.64322	26.97187	208.9802	-1279.4529	90.99003	211.61606	-1335.43564	72.44104	53.44953	-1231.78093
97	3.21	212.4791	1579.67651	-568.89168	42.73944	1570.22629	-551.29169	211.6717	1543.78143	-715.70885	18.13044	1535.79636	-698.07922	207.6972	1319.60846	-605.73376	60.31169	1317.25922	-587.20192	178.874	1397.07352	-740.08682	23.51416	1392.44278	-721.05835	100.39468	1236.8544	-810.63416	135.46928	1248.30185	-569.22554	128.02519	1143.53294	-565.71514	321.10039	1352.33002	-673.57918	376.82808	1195.10277	-761.39877	403.12809	1073.8652	-821.79527	426.51993	959.99146	-881.48727	412.16896	773.47	-872.4025	441.27995	810.71686	-945.4567	464.2672	751.31516	-919.47952	-67.78449	1368.66425	-627.91149	-135.48915	1181.54678	-608.5009	-169.35297	1040.23132	-608.12218	-157.42775	937.82463	-569.70875	-55.46482	856.26602	-414.28139	-101.28313	797.34741	-461.81412	-107.81371	799.37119	-396.26945	202.84317	934.96796	-633.06324	-27.31071	909.19571	-676.97792	214.40407	950.30533	-835.30708	38.17699	954.3882	-851.68655	262.59556	662.96677	-694.95193	251.72009	505.98991	-548.07068	207.97497	324.45972	-500.54054	195.00805	137.90622	-547.11098	123.5074	63.64388	-603.56831	154.21842	57.63965	-406.02173	20.31229	683.8121	-906.26328	-41.27569	475.44537	-907.66327	25.24928	294.17398	-1038.0983	20.32062	232.08904	-1211.11351	85.69811	252.22998	-1258.24074	66.09054	67.45678	-1209.14749
98	3.243	210.24164	1589.92844	-508.05233	40.22577	1580.04684	-496.93863	215.09212	1555.90408	-655.49538	20.92102	1547.26196	-644.74937	206.55788	1331.79581	-546.49597	58.49091	1329.15527	-529.5171	180.22909	1404.06372	-683.69225	25.16402	1401.9046	-665.65788	100.65143	1241.43875	-751.69724	133.28287	1260.62889	-508.59676	125.02809	1156.16158	-502.05387	321.68282	1360.89005	-614.66637	376.33671	1199.0567	-692.38937	401.99745	1072.54417	-746.67168	422.30549	951.87614	-795.7753	400.54775	767.89406	-768.42598	431.40617	797.11876	-844.61197	451.20514	738.83865	-813.75481	-68.47317	1380.91263	-573.13427	-134.32355	1193.0513	-558.21804	-170.79105	1051.37596	-569.48269	-162.88042	945.9565	-543.56052	-66.07048	840.12177	-399.02531	-112.9327	790.90515	-454.89243	-119.92182	782.86339	-390.34004	205.52521	944.03419	-569.91676	-24.65391	914.9411	-610.58723	215.14671	958.11516	-772.53265	37.81877	957.97638	-787.53799	260.4084	666.23405	-649.15466	253.2089	500.41664	-511.33518	208.34692	318.49895	-477.8936	193.15506	138.97676	-539.76868	122.27912	65.64309	-601.88885	150.92736	56.11325	-403.76881	14.83045	661.79703	-819.0799	-51.55541	464.64489	-796.65581	16.6336	301.67606	-941.44127	23.52722	269.50872	-1123.42628	98.44925	283.61702	-1147.60353	30.19566	99.79737	-1160.49736
99	3.277	205.25751	1606.04156	-448.65486	35.06894	1594.44366	-443.42831	215.11358	1573.51303	-595.88867	21.13082	1563.00186	-592.19166	203.89652	1347.25281	-488.0378	54.48795	1345.98419	-474.2865	181.61587	1417.27676	-627.65301	25.81355	1415.37552	-613.91869	104.54956	1252.72743	-692.1241	128.61267	1276.91086	-451.1816	119.71759	1172.44881	-444.38099	321.58741	1374.45435	-555.20424	376.2846	1206.819	-627.58957	401.67694	1077.09236	-672.18925	417.58224	948.61801	-706.32332	384.4381	772.40334	-654.29855	418.09048	787.17415	-734.10316	435.62729	734.58778	-692.98744	-72.46321	1394.99115	-524.78779	-140.29416	1206.05255	-520.69424	-171.98318	1064.03252	-534.10938	-168.69081	958.591	-519.96384	-77.8441	829.01619	-391.85265	-129.338	791.74957	-452.22969	-133.23643	773.09509	-390.14755	210.35332	955.78247	-509.69086	-20.50251	930.02785	-544.56474	213.2188	972.42699	-712.57034	35.72526	967.35649	-725.64323	256.36747	675.94681	-611.46896	250.21915	498.76564	-490.04951	206.21582	315.40234	-465.21744	190.48315	139.16232	-535.9417	120.62272	67.66821	-600.53211	148.79522	55.37813	-402.61089	13.63238	662.35504	-727.57584	-61.22163	471.8824	-684.5652	7.19263	315.12108	-830.55061	25.40976	295.12281	-1012.81639	99.91086	301.95204	-1047.2757	14.62866	124.77715	-1037.25426
100	3.31	198.14484	1624.01825	-390.16228	27.82784	1610.70831	-390.5122	213.23147	1593.35205	-537.2942	19.20043	1580.91095	-540.13069	199.94755	1367.4321	-430.86952	50.36649	1364.25537	-420.94208	182.15611	1434.13055	-571.96617	26.65992	1430.93903	-562.69245	108.44573	1267.49619	-635.26649	124.4031	1296.26617	-395.33279	116.57796	1191.70776	-387.83642	320.34554	1394.08478	-494.74247	376.22749	1222.90672	-557.95441	400.64941	1089.01466	-595.49664	410.30777	953.79044	-613.71674	364.95472	790.93391	-537.98473	400.93887	787.53151	-616.97498	417.71477	746.14243	-563.9732	-75.33143	1410.96649	-477.35191	-143.85399	1220.71999	-484.28123	-172.61314	1080.35507	-504.40826	-174.20609	975.82085	-501.24935	-91.5894	826.19431	-389.89887	-148.0863	801.24268	-452.59335	-149.34138	773.48007	-393.77495	214.31435	969.17961	-450.80948	-18.66329	950.61539	-480.86075	209.75025	989.91661	-654.20631	32.89363	985.01518	-663.39775	254.14261	689.98428	-575.96977	244.80858	501.16043	-475.15785	202.46574	316.95297	-458.73432	190.20082	141.62893	-533.82408	120.89546	70.80103	-599.82117	148.39107	54.97321	-401.88515	8.06673	669.14391	-636.96114	-66.3587	487.02148	-572.43309	1.98415	322.97169	-709.61288	17.97499	294.44345	-891.83578	93.69252	301.28025	-931.20476	11.91432	125.7849	-894.21738
101	3.343	189.7504	1638.75076	-332.01004	19.7159	1623.8736	-337.74136	209.9087	1610.9845	-479.02367	16.00051	1596.7009	-488.28079	195.65363	1387.29111	-374.86835	46.6746	1381.38626	-368.3783	182.08405	1448.96667	-517.21081	27.82256	1443.91022	-511.83575	112.62906	1281.20819	-579.58107	120.75849	1314.81476	-340.00973	114.52757	1210.19615	-331.13373	318.06433	1414.05319	-434.8761	376.4632	1240.72838	-486.28891	400.00713	1103.61382	-515.91476	402.36034	963.53264	-518.01846	343.11466	818.02658	-421.6143	381.91719	797.97455	-496.86787	396.46046	769.41597	-434.30393	-76.9367	1425.06561	-429.95934	-143.93643	1236.85631	-444.69795	-173.19525	1097.44881	-477.46067	-178.90022	994.27155	-484.39621	-107.22761	828.53348	-388.62106	-162.79917	814.20738	-454.88205	-167.70174	780.19997	-399.85664	216.83594	981.01715	-394.8093	-18.00434	968.61382	-419.73034	205.04599	1005.03685	-595.83996	29.1012	999.90517	-602.05421	250.96815	704.72107	-545.2673	240.0742	507.14222	-469.82811	201.7877	322.92801	-457.48127	189.26533	148.23753	-533.3588	119.59833	77.88378	-597.34879	148.63397	54.8929	-400.30083	-3.08559	682.59857	-552.62081	-70.01097	502.82921	-462.93835	1.78514	325.26863	-583.29105	14.88455	276.31901	-761.13632	89.24936	277.59251	-807.29553	9.87426	113.51215	-731.69243
102	3.377	181.34794	1648.42331	-273.80011	11.72208	1631.46927	-284.69629	206.37058	1623.35358	-420.39326	13.00601	1606.66	-435.5835	190.15871	1402.58331	-320.2195	42.4642	1395.51117	-315.52515	181.39284	1457.97134	-463.1348	28.78776	1452.07825	-460.19699	115.4483	1288.90274	-523.31367	115.81272	1328.58047	-285.30174	110.47788	1223.95782	-275.16254	314.7423	1428.43185	-376.34762	375.86166	1255.8889	-415.05295	401.38851	1115.13893	-436.60511	395.2985	972.47704	-420.82993	321.20899	848.32199	-305.98034	360.33169	813.84369	-374.39384	372.15893	795.51926	-308.15781	-79.16419	1434.38065	-382.52552	-148.38696	1246.64154	-410.22644	-174.34587	1110.87029	-450.66601	-182.74376	1010.13046	-467.41535	-124.41995	832.40433	-385.35992	-174.85064	827.23854	-456.44375	-186.2446	788.49274	-405.7906	220.61691	988.56445	-342.45449	-15.27603	979.73488	-357.09244	197.3629	1014.75189	-542.22061	22.44859	1008.42171	-541.1348	244.24328	719.81491	-516.82133	235.94385	516.38657	-461.61827	200.37607	332.31461	-452.84058	189.05718	158.68076	-530.21408	118.85406	88.75802	-593.40858	149.43001	55.30322	-398.73821	-19.83543	688.58139	-475.40188	-70.11902	517.71088	-357.01332	3.49349	322.24361	-453.17455	9.21535	243.44742	-620.9103	83.53159	235.99617	-671.81297	6.26352	94.31581	-557.16995
